<mxfile host="app.diagrams.net" modified="2021-01-07T05:07:19.961Z" agent="5.0 (Windows NT 6.1; Win64; x64) AppleWebKit/537.36 (KHTML, like Gecko) Chrome/87.0.4280.88 Safari/537.36" etag="M8JpXvR4LXl6VeAs_VNO" version="14.1.8" type="github">
  <diagram id="yt3vYA3sM3yqmYOF4gh5" name="Page-1">
    <mxGraphModel dx="1422" dy="762" grid="1" gridSize="10" guides="1" tooltips="1" connect="1" arrows="1" fold="1" page="1" pageScale="1" pageWidth="827" pageHeight="1169" math="0" shadow="0">
      <root>
        <mxCell id="0" />
        <mxCell id="1" parent="0" />
        <mxCell id="seIWglCMPYCqKw8UioXr-1" value="&lt;font style=&quot;vertical-align: inherit&quot;&gt;&lt;font style=&quot;vertical-align: inherit&quot;&gt;client&lt;/font&gt;&lt;/font&gt;" style="shape=umlLifeline;perimeter=lifelinePerimeter;whiteSpace=wrap;html=1;container=1;collapsible=0;recursiveResize=0;outlineConnect=0;" parent="1" vertex="1">
          <mxGeometry x="30" y="30" width="70" height="1050" as="geometry" />
        </mxCell>
        <mxCell id="seIWglCMPYCqKw8UioXr-2" value="&lt;font style=&quot;vertical-align: inherit&quot;&gt;&lt;font style=&quot;vertical-align: inherit&quot;&gt;&lt;font style=&quot;vertical-align: inherit&quot;&gt;&lt;font style=&quot;vertical-align: inherit&quot;&gt;&lt;font style=&quot;vertical-align: inherit&quot;&gt;&lt;font style=&quot;vertical-align: inherit&quot;&gt;apigw&lt;/font&gt;&lt;/font&gt;&lt;/font&gt;&lt;/font&gt;&lt;/font&gt;&lt;/font&gt;" style="shape=umlLifeline;perimeter=lifelinePerimeter;whiteSpace=wrap;html=1;container=1;collapsible=0;recursiveResize=0;outlineConnect=0;" parent="1" vertex="1">
          <mxGeometry x="160" y="30" width="70" height="1050" as="geometry" />
        </mxCell>
        <mxCell id="seIWglCMPYCqKw8UioXr-3" value="&lt;font style=&quot;vertical-align: inherit&quot;&gt;&lt;font style=&quot;vertical-align: inherit&quot;&gt;&lt;font style=&quot;vertical-align: inherit&quot;&gt;&lt;font style=&quot;vertical-align: inherit&quot;&gt;&lt;font style=&quot;vertical-align: inherit&quot;&gt;&lt;font style=&quot;vertical-align: inherit&quot;&gt;&lt;font style=&quot;vertical-align: inherit&quot;&gt;&lt;font style=&quot;vertical-align: inherit&quot;&gt;quote&lt;/font&gt;&lt;/font&gt;&lt;/font&gt;&lt;/font&gt;&lt;/font&gt;&lt;/font&gt;&lt;/font&gt;&lt;/font&gt;" style="shape=umlLifeline;perimeter=lifelinePerimeter;whiteSpace=wrap;html=1;container=1;collapsible=0;recursiveResize=0;outlineConnect=0;" parent="1" vertex="1">
          <mxGeometry x="440" y="30" width="70" height="1050" as="geometry" />
        </mxCell>
        <mxCell id="seIWglCMPYCqKw8UioXr-10" value="&lt;font style=&quot;vertical-align: inherit&quot;&gt;&lt;font style=&quot;vertical-align: inherit&quot;&gt;获取行情代码及市场&lt;/font&gt;&lt;/font&gt;" style="html=1;verticalAlign=bottom;endArrow=block;" parent="seIWglCMPYCqKw8UioXr-3" edge="1">
          <mxGeometry width="80" relative="1" as="geometry">
            <mxPoint x="40" y="133" as="sourcePoint" />
            <mxPoint x="174.5" y="133" as="targetPoint" />
          </mxGeometry>
        </mxCell>
        <mxCell id="seIWglCMPYCqKw8UioXr-12" value="&lt;font style=&quot;vertical-align: inherit&quot;&gt;&lt;font style=&quot;vertical-align: inherit&quot;&gt;&lt;font style=&quot;vertical-align: inherit&quot;&gt;&lt;font style=&quot;vertical-align: inherit&quot;&gt;将用户请求写入redis并查看代码是否已经订阅&lt;/font&gt;&lt;/font&gt;&lt;/font&gt;&lt;/font&gt;" style="html=1;verticalAlign=bottom;endArrow=block;" parent="seIWglCMPYCqKw8UioXr-3" edge="1">
          <mxGeometry width="80" relative="1" as="geometry">
            <mxPoint x="40" y="210" as="sourcePoint" />
            <mxPoint x="314.5" y="210" as="targetPoint" />
          </mxGeometry>
        </mxCell>
        <mxCell id="seIWglCMPYCqKw8UioXr-21" value="&lt;font style=&quot;vertical-align: inherit&quot;&gt;&lt;font style=&quot;vertical-align: inherit&quot;&gt;订阅行情数据&lt;/font&gt;&lt;/font&gt;" style="html=1;verticalAlign=bottom;endArrow=block;" parent="seIWglCMPYCqKw8UioXr-3" target="seIWglCMPYCqKw8UioXr-6" edge="1">
          <mxGeometry width="80" relative="1" as="geometry">
            <mxPoint x="40" y="420" as="sourcePoint" />
            <mxPoint x="120" y="420" as="targetPoint" />
          </mxGeometry>
        </mxCell>
        <mxCell id="seIWglCMPYCqKw8UioXr-4" value="&lt;font style=&quot;vertical-align: inherit&quot;&gt;&lt;font style=&quot;vertical-align: inherit&quot;&gt;&lt;font style=&quot;vertical-align: inherit&quot;&gt;&lt;font style=&quot;vertical-align: inherit&quot;&gt;&lt;font style=&quot;vertical-align: inherit&quot;&gt;&lt;font style=&quot;vertical-align: inherit&quot;&gt;&lt;font style=&quot;vertical-align: inherit&quot;&gt;&lt;font style=&quot;vertical-align: inherit&quot;&gt;&lt;font style=&quot;vertical-align: inherit&quot;&gt;&lt;font style=&quot;vertical-align: inherit&quot;&gt;redis&lt;/font&gt;&lt;/font&gt;&lt;/font&gt;&lt;/font&gt;&lt;/font&gt;&lt;/font&gt;&lt;/font&gt;&lt;/font&gt;&lt;/font&gt;&lt;/font&gt;" style="shape=umlLifeline;perimeter=lifelinePerimeter;whiteSpace=wrap;html=1;container=1;collapsible=0;recursiveResize=0;outlineConnect=0;" parent="1" vertex="1">
          <mxGeometry x="720" y="30" width="70" height="1050" as="geometry" />
        </mxCell>
        <mxCell id="seIWglCMPYCqKw8UioXr-5" value="&lt;font style=&quot;vertical-align: inherit&quot;&gt;&lt;font style=&quot;vertical-align: inherit&quot;&gt;&lt;font style=&quot;vertical-align: inherit&quot;&gt;&lt;font style=&quot;vertical-align: inherit&quot;&gt;键盘精灵&lt;/font&gt;&lt;/font&gt;&lt;/font&gt;&lt;/font&gt;" style="shape=umlLifeline;perimeter=lifelinePerimeter;whiteSpace=wrap;html=1;container=1;collapsible=0;recursiveResize=0;outlineConnect=0;" parent="1" vertex="1">
          <mxGeometry x="580" y="30" width="70" height="1050" as="geometry" />
        </mxCell>
        <mxCell id="seIWglCMPYCqKw8UioXr-6" value="&lt;font style=&quot;vertical-align: inherit&quot;&gt;&lt;font style=&quot;vertical-align: inherit&quot;&gt;&lt;font style=&quot;vertical-align: inherit&quot;&gt;&lt;font style=&quot;vertical-align: inherit&quot;&gt;quote_gw_svr&lt;/font&gt;&lt;/font&gt;&lt;/font&gt;&lt;/font&gt;" style="shape=umlLifeline;perimeter=lifelinePerimeter;whiteSpace=wrap;html=1;container=1;collapsible=0;recursiveResize=0;outlineConnect=0;" parent="1" vertex="1">
          <mxGeometry x="850" y="30" width="90" height="1050" as="geometry" />
        </mxCell>
        <mxCell id="seIWglCMPYCqKw8UioXr-8" value="&lt;font style=&quot;vertical-align: inherit&quot;&gt;&lt;font style=&quot;vertical-align: inherit&quot;&gt;&lt;font style=&quot;vertical-align: inherit&quot;&gt;&lt;font style=&quot;vertical-align: inherit&quot;&gt;&lt;font style=&quot;vertical-align: inherit&quot;&gt;&lt;font style=&quot;vertical-align: inherit&quot;&gt;push&lt;/font&gt;&lt;/font&gt;&lt;/font&gt;&lt;/font&gt;&lt;/font&gt;&lt;/font&gt;" style="shape=umlLifeline;perimeter=lifelinePerimeter;whiteSpace=wrap;html=1;container=1;collapsible=0;recursiveResize=0;outlineConnect=0;" parent="1" vertex="1">
          <mxGeometry x="290" y="30" width="90" height="1050" as="geometry" />
        </mxCell>
        <mxCell id="seIWglCMPYCqKw8UioXr-9" value="&lt;font style=&quot;vertical-align: inherit&quot;&gt;&lt;font style=&quot;vertical-align: inherit&quot;&gt;请求&lt;/font&gt;&lt;/font&gt;" style="html=1;verticalAlign=bottom;endArrow=block;" parent="1" edge="1">
          <mxGeometry width="80" relative="1" as="geometry">
            <mxPoint x="194.81034482758628" y="132" as="sourcePoint" />
            <mxPoint x="474.5" y="132" as="targetPoint" />
            <Array as="points">
              <mxPoint x="290" y="132" />
              <mxPoint x="310" y="132" />
              <mxPoint x="380" y="132" />
            </Array>
          </mxGeometry>
        </mxCell>
        <mxCell id="seIWglCMPYCqKw8UioXr-11" value="return" style="html=1;verticalAlign=bottom;endArrow=open;dashed=1;endSize=8;" parent="1" edge="1">
          <mxGeometry relative="1" as="geometry">
            <mxPoint x="610" y="191" as="sourcePoint" />
            <mxPoint x="474.81034482758605" y="191" as="targetPoint" />
          </mxGeometry>
        </mxCell>
        <mxCell id="seIWglCMPYCqKw8UioXr-13" value="return" style="html=1;verticalAlign=bottom;endArrow=open;dashed=1;endSize=8;" parent="1" edge="1">
          <mxGeometry relative="1" as="geometry">
            <mxPoint x="750" y="272" as="sourcePoint" />
            <mxPoint x="474.81034482758605" y="272" as="targetPoint" />
          </mxGeometry>
        </mxCell>
        <mxCell id="seIWglCMPYCqKw8UioXr-15" value="&lt;font style=&quot;vertical-align: inherit&quot;&gt;&lt;font style=&quot;vertical-align: inherit&quot;&gt;请求&lt;/font&gt;&lt;/font&gt;" style="html=1;verticalAlign=bottom;endArrow=block;" parent="1" source="seIWglCMPYCqKw8UioXr-1" edge="1">
          <mxGeometry width="80" relative="1" as="geometry">
            <mxPoint x="110" y="100" as="sourcePoint" />
            <mxPoint x="190" y="100" as="targetPoint" />
          </mxGeometry>
        </mxCell>
        <mxCell id="seIWglCMPYCqKw8UioXr-16" value="return" style="html=1;verticalAlign=bottom;endArrow=open;dashed=1;endSize=8;" parent="1" edge="1">
          <mxGeometry relative="1" as="geometry">
            <mxPoint x="890" y="354" as="sourcePoint" />
            <mxPoint x="474.81034482758605" y="354" as="targetPoint" />
          </mxGeometry>
        </mxCell>
        <mxCell id="seIWglCMPYCqKw8UioXr-14" value="&lt;font style=&quot;vertical-align: inherit&quot;&gt;&lt;font style=&quot;vertical-align: inherit&quot;&gt;获取行情数据&lt;/font&gt;&lt;/font&gt;" style="html=1;verticalAlign=bottom;endArrow=block;" parent="1" edge="1">
          <mxGeometry width="80" relative="1" as="geometry">
            <mxPoint x="480" y="319" as="sourcePoint" />
            <mxPoint x="894.5" y="319" as="targetPoint" />
          </mxGeometry>
        </mxCell>
        <mxCell id="seIWglCMPYCqKw8UioXr-18" value="return" style="html=1;verticalAlign=bottom;endArrow=open;dashed=1;endSize=8;" parent="1" edge="1">
          <mxGeometry relative="1" as="geometry">
            <mxPoint x="470" y="389" as="sourcePoint" />
            <mxPoint x="334.8103448275863" y="389.0000000000001" as="targetPoint" />
          </mxGeometry>
        </mxCell>
        <mxCell id="seIWglCMPYCqKw8UioXr-19" value="return" style="html=1;verticalAlign=bottom;endArrow=open;dashed=1;endSize=8;" parent="1" edge="1">
          <mxGeometry relative="1" as="geometry">
            <mxPoint x="335.19" y="410" as="sourcePoint" />
            <mxPoint x="200.00034482758628" y="410.0000000000002" as="targetPoint" />
          </mxGeometry>
        </mxCell>
        <mxCell id="seIWglCMPYCqKw8UioXr-20" value="return" style="html=1;verticalAlign=bottom;endArrow=open;dashed=1;endSize=8;" parent="1" edge="1">
          <mxGeometry x="-0.0356" relative="1" as="geometry">
            <mxPoint x="195.19000000000005" y="430.0000000000001" as="sourcePoint" />
            <mxPoint x="60.00034482758633" y="430.0000000000002" as="targetPoint" />
            <mxPoint as="offset" />
          </mxGeometry>
        </mxCell>
        <mxCell id="seIWglCMPYCqKw8UioXr-22" value="return" style="html=1;verticalAlign=bottom;endArrow=open;dashed=1;endSize=8;" parent="1" edge="1">
          <mxGeometry relative="1" as="geometry">
            <mxPoint x="895.19" y="490" as="sourcePoint" />
            <mxPoint x="480.00034482758605" y="490" as="targetPoint" />
          </mxGeometry>
        </mxCell>
        <mxCell id="seIWglCMPYCqKw8UioXr-23" value="&lt;font style=&quot;vertical-align: inherit&quot;&gt;&lt;font style=&quot;vertical-align: inherit&quot;&gt;&lt;font style=&quot;vertical-align: inherit&quot;&gt;&lt;font style=&quot;vertical-align: inherit&quot;&gt;&lt;font style=&quot;vertical-align: inherit&quot;&gt;&lt;font style=&quot;vertical-align: inherit&quot;&gt;从redis获取订阅该代码的用户&lt;/font&gt;&lt;/font&gt;&lt;/font&gt;&lt;/font&gt;&lt;/font&gt;&lt;/font&gt;" style="html=1;verticalAlign=bottom;endArrow=block;" parent="1" edge="1">
          <mxGeometry width="80" relative="1" as="geometry">
            <mxPoint x="477.75" y="540" as="sourcePoint" />
            <mxPoint x="752.25" y="540" as="targetPoint" />
          </mxGeometry>
        </mxCell>
        <mxCell id="seIWglCMPYCqKw8UioXr-24" value="return" style="html=1;verticalAlign=bottom;endArrow=open;dashed=1;endSize=8;" parent="1" edge="1">
          <mxGeometry relative="1" as="geometry">
            <mxPoint x="752.59" y="579.9999999999999" as="sourcePoint" />
            <mxPoint x="477.400344827586" y="579.9999999999999" as="targetPoint" />
          </mxGeometry>
        </mxCell>
        <mxCell id="seIWglCMPYCqKw8UioXr-25" value="return" style="html=1;verticalAlign=bottom;endArrow=open;dashed=1;endSize=8;" parent="1" edge="1">
          <mxGeometry relative="1" as="geometry">
            <mxPoint x="475.19" y="604" as="sourcePoint" />
            <mxPoint x="340.0003448275863" y="604" as="targetPoint" />
          </mxGeometry>
        </mxCell>
        <mxCell id="seIWglCMPYCqKw8UioXr-26" value="return" style="html=1;verticalAlign=bottom;endArrow=open;dashed=1;endSize=8;" parent="1" edge="1">
          <mxGeometry relative="1" as="geometry">
            <mxPoint x="335.19" y="630" as="sourcePoint" />
            <mxPoint x="200.00034482758628" y="630" as="targetPoint" />
          </mxGeometry>
        </mxCell>
        <mxCell id="seIWglCMPYCqKw8UioXr-27" value="return" style="html=1;verticalAlign=bottom;endArrow=open;dashed=1;endSize=8;" parent="1" edge="1">
          <mxGeometry relative="1" as="geometry">
            <mxPoint x="195.19" y="660" as="sourcePoint" />
            <mxPoint x="60.000344827586275" y="660" as="targetPoint" />
          </mxGeometry>
        </mxCell>
      </root>
    </mxGraphModel>
  </diagram>
</mxfile>
